<?xml version="1.0" standalone="no"?>
<!DOCTYPE svg PUBLIC "-//W3C//DTD SVG 20010904//EN"
 "http://www.w3.org/TR/2001/REC-SVG-20010904/DTD/svg10.dtd">
<svg version="1.0" xmlns="http://www.w3.org/2000/svg"
 width="16.000000pt" height="16.000000pt" viewBox="0 0 16.000000 16.000000"
 preserveAspectRatio="xMidYMid meet">
<metadata>
Created by potrace 1.11, written by Peter Selinger 2001-2013
</metadata>
<g transform="translate(0.000000,16.000000) scale(0.003125,-0.003125)"
fill="#000000" stroke="none">
<path d="M2409 5116 c-2 -2 -40 -6 -84 -10 -75 -6 -212 -26 -280 -41 -157 -34
-416 -115 -439 -136 -6 -5 -16 -9 -23 -9 -23 0 -217 -98 -338 -171 -193 -116
-334 -228 -497 -392 -250 -252 -441 -542 -569 -865 -58 -145 -127 -399 -145
-527 -3 -27 -8 -59 -10 -70 -11 -56 -19 -207 -18 -355 1 -217 10 -298 55 -515
31 -146 99 -361 152 -480 41 -91 129 -263 149 -290 4 -5 39 -57 77 -115 38
-58 99 -142 136 -187 63 -79 231 -254 307 -320 94 -82 344 -263 364 -263 4 0
15 -6 23 -14 69 -60 458 -225 631 -268 57 -14 222 -48 260 -54 19 -3 46 -7 60
-10 109 -19 420 -25 578 -11 250 23 533 96 777 202 775 337 1339 1042 1500
1875 2 14 12 75 21 140 20 133 25 416 11 574 -4 49 -10 92 -11 95 -2 3 -7 30
-10 60 -4 29 -8 56 -10 60 -2 3 -7 24 -10 46 -25 164 -123 447 -219 635 -294
574 -767 1006 -1357 1241 -91 36 -297 100 -365 113 -16 4 -41 9 -55 11 -85 18
-122 24 -175 30 -33 4 -69 9 -80 12 -25 5 -401 14 -406 9z m386 -330 c28 -3
61 -8 75 -10 14 -3 41 -8 60 -10 31 -5 54 -9 160 -32 14 -2 34 -8 45 -11 11
-4 22 -7 25 -8 42 -9 200 -65 280 -99 91 -40 305 -154 335 -178 5 -4 45 -33
87 -63 76 -53 93 -67 187 -150 410 -359 685 -900 738 -1450 14 -137 7 -446
-12 -535 -3 -14 -7 -38 -9 -55 -3 -16 -9 -50 -15 -75 -5 -25 -12 -56 -15 -70
-11 -57 -58 -204 -96 -299 -53 -134 -153 -331 -172 -339 -5 -2 -8 -8 -8 -13 0
-17 -97 -155 -173 -247 -239 -286 -564 -527 -877 -650 -41 -16 -84 -33 -95
-37 -26 -10 -23 -9 -145 -45 -220 -64 -370 -84 -620 -84 -211 1 -275 8 -515
59 -54 11 -211 60 -260 81 -16 7 -55 22 -85 34 -30 12 -102 46 -160 76 -558
292 -976 816 -1134 1419 -24 92 -37 150 -42 195 -2 14 -5 36 -8 50 -20 88 -27
400 -13 535 16 156 36 258 78 402 150 516 478 958 930 1255 119 78 278 162
364 193 28 10 55 22 60 26 30 21 335 103 429 115 23 3 47 7 54 9 7 3 47 7 90
11 42 4 78 8 80 9 5 4 327 -3 377 -9z"/>
<path d="M2823 2728 l-743 -743 -263 263 -264 264 -113 -112 -112 -112 376
-376 377 -376 855 855 855 855 -111 112 c-61 62 -111 112 -113 112 -1 0 -336
-334 -744 -742z"/>
</g>
</svg>
